<svg width="31" height="31" viewBox="0 0 31 31" fill="none" xmlns="http://www.w3.org/2000/svg">
<path d="M15.399 0.540891C21.6293 0.586921 27.185 4.46781 29.3633 10.2966C31.5419 16.1259 29.89 22.6929 25.2116 26.8026C20.5338 30.9117 13.8014 31.7113 8.28884 28.8127L8.22013 28.7887C8.20941 28.7824 8.20768 28.7771 8.20537 28.7699L7.18158 28.1906C6.97306 28.1053 6.74199 28.0914 6.60092 28.1271C5.53667 28.5097 4.44898 28.8239 3.34452 29.0678L3.14207 29.0922C1.92625 29.1192 1.31365 28.3303 1.31365 27.1822L1.34296 26.9362C1.61906 25.7943 1.96507 24.6705 2.35889 23.6298C2.41997 23.4328 2.39964 23.2196 2.29422 23.022L2.01849 22.4845C-0.418664 17.8247 -0.234872 12.2311 2.5029 7.74092C5.24032 3.25128 10.1315 0.519966 15.399 0.540891ZM15.3845 2.63272L14.9632 2.63931C10.5944 2.76431 6.57208 5.08758 4.28995 8.83051C1.93452 12.6936 1.77641 17.5056 3.87695 21.5218L4.14833 22.0511C4.50928 22.7266 4.5848 23.5182 4.33785 24.3084C3.95407 25.3277 3.6333 26.3696 3.37735 27.4281L3.51901 26.8763L4.11111 26.7219C4.31435 26.6659 4.5181 26.607 4.72291 26.5449L5.34109 26.349L5.96901 26.1334C6.63232 25.9507 7.33756 25.9929 8.03229 26.2793C8.17813 26.3496 8.35907 26.4472 8.58717 26.5761L9.22065 26.9397C9.23138 26.9426 9.24077 26.9451 9.24795 26.9471L9.22945 26.9447L9.66105 27.1609C14.1993 29.3522 19.606 28.7078 23.5 25.5107L23.8303 25.2301C27.8559 21.6939 29.277 16.0443 27.4028 11.0293C25.5283 6.01369 20.7466 2.6735 15.3845 2.63272Z" fill="#14171A"/>
</svg>
