<svg width="37" height="37" viewBox="0 0 37 37" fill="none" xmlns="http://www.w3.org/2000/svg">
<path d="M23.8499 22.9227C23.8879 23.2256 23.9276 23.5701 23.9649 23.9451C24.1318 25.6229 24.2621 28.0138 23.9337 30.0214C23.7707 31.0181 23.4779 32.0338 22.931 32.8269C22.3485 33.6715 21.4633 34.2702 20.2698 34.2702C19.0974 34.2702 18.3837 33.4311 17.9459 32.7016C17.5094 31.9744 17.1268 30.9873 16.7352 29.9769L16.7054 29.9C15.4646 26.6996 13.7678 22.3725 9.20158 19.3283C8.505 18.8639 7.84349 18.5297 7.26498 18.2898C5.68408 17.6343 4.26453 15.8907 4.63847 13.8949L5.14679 11.182C5.46566 9.48014 6.725 8.10793 8.39332 7.64451L19.6275 4.5239C24.1126 3.27805 28.7028 6.13837 29.5607 10.7135L30.59 16.2033C31.2447 19.695 28.566 22.9227 25.0134 22.9227H23.8499ZM27.33 11.1318C26.7173 7.8638 23.4385 5.82072 20.2349 6.71061L9.00074 9.83122C8.16658 10.0629 7.53691 10.749 7.37747 11.6L6.86916 14.3129C6.74859 14.9564 7.23482 15.8204 8.1343 16.1934C8.83624 16.4845 9.63001 16.8863 10.4605 17.44C15.6506 20.9 17.5608 25.8276 18.8031 29.0323L18.8215 29.0797C19.2516 30.1893 19.5675 30.9933 19.8918 31.5337C20.0488 31.7953 20.166 31.9209 20.2359 31.976C20.2543 31.9904 20.2663 31.9976 20.2723 32.0007C20.5943 32.0001 20.8287 31.8777 21.0627 31.5385C21.3327 31.1469 21.5535 30.514 21.694 29.6551C21.9726 27.9517 21.8691 25.8036 21.7066 24.1698C21.6422 23.5221 21.5702 22.9713 21.5146 22.5837C21.4868 22.3901 21.4631 22.2377 21.4466 22.1348L21.4276 22.0188L21.4228 21.9907L21.4217 21.9844C21.364 21.6543 21.455 21.3146 21.6705 21.058C21.7874 20.9189 21.9343 20.8117 22.0978 20.7426C22.2359 20.6843 22.3858 20.6532 22.5393 20.6532H25.0134C27.145 20.6532 28.7522 18.7166 28.3594 16.6216L27.33 11.1318Z" fill="#242424"/>
</svg>
