<svg width="26" height="31" viewBox="0 0 26 31" fill="none" xmlns="http://www.w3.org/2000/svg">
<path d="M13.0752 2.26235C13.5251 1.14204 14.7854 -0.0613909 16.3998 0.387298C17.6695 0.74019 18.4944 1.50792 18.9658 2.53067C19.4052 3.48397 19.5131 4.60607 19.5336 5.67542C19.5557 6.82567 19.3155 8.20567 19.0327 9.41259C18.9009 9.97516 18.7557 10.5174 18.6139 11.0049H21.5929C24.4641 11.0049 26.5295 13.764 25.7206 16.5189L22.7862 26.5124C21.9384 29.3998 18.8862 31.0295 16.0152 30.1277L4.49485 26.5091C3.23223 26.1125 2.22243 25.1568 1.75695 23.918L0.638458 20.9411C-0.0963705 18.9854 0.680183 16.7844 2.4796 15.7228L6.50598 13.3474C6.51399 13.3418 6.52562 13.3335 6.54071 13.3224C6.58496 13.2898 6.65902 13.2329 6.75864 13.1485C6.95776 12.9796 7.25965 12.6999 7.63008 12.282C8.37014 11.4473 9.3894 10.0552 10.4095 7.88438C10.8501 6.94659 11.2209 6.2094 11.5576 5.53989C12.1018 4.45769 12.5571 3.5523 13.0752 2.26235ZM7.66442 15.1604C7.65221 15.1682 7.63988 15.1759 7.62738 15.1832L3.57256 17.5754C2.67285 18.1062 2.28458 19.2067 2.65199 20.1846L3.77048 23.1614C4.00322 23.7809 4.50812 24.2587 5.13943 24.457L16.6598 28.0756C18.3824 28.6167 20.2137 27.6389 20.7224 25.9064L23.6568 15.9129C24.0612 14.5354 23.0285 13.1559 21.5929 13.1559H17.1425C16.7932 13.1559 16.4657 12.9863 16.2641 12.701C16.0626 12.4157 16.0121 12.0503 16.1288 11.7211C16.3438 11.1144 16.6711 10.0632 16.9385 8.92193C17.2097 7.76438 17.3999 6.59391 17.3831 5.71677C17.3637 4.70945 17.2569 3.96168 17.0123 3.43107C16.7998 2.9699 16.4713 2.63967 15.8238 2.45971C15.7311 2.43395 15.6231 2.44147 15.4812 2.5346C15.3262 2.63632 15.1678 2.82344 15.0712 3.06393C14.5255 4.42277 14.0034 5.46353 13.4256 6.61546C13.0927 7.2791 12.7413 7.97964 12.3562 8.79916C11.2508 11.1515 10.1191 12.7169 9.23958 13.709C8.80021 14.2046 8.42513 14.5555 8.14973 14.789C8.01209 14.9058 7.89951 14.993 7.81643 15.0542C7.77489 15.0848 7.74075 15.1089 7.71455 15.1269L7.68128 15.1493L7.66926 15.1572L7.66442 15.1604ZM6.49571 13.3546L6.49312 13.3563L6.49571 13.3546Z" fill="#242424"/>
</svg>
