<svg width="35" height="35" viewBox="0 0 35 35" fill="none" xmlns="http://www.w3.org/2000/svg">
<path d="M2.86335 3.40034C3.18669 3.12643 3.64221 3.07169 4.02123 3.26121L31.5498 17.0255C31.9085 17.2048 32.1351 17.5715 32.1351 17.9725C32.1351 18.3735 31.9085 18.7402 31.5498 18.9195L4.02123 32.6838C3.64221 32.8733 3.18669 32.8186 2.86335 32.5447C2.54001 32.2708 2.41113 31.8304 2.53576 31.4254L6.67511 17.9725L2.53576 4.51959C2.41113 4.11457 2.54001 3.67425 2.86335 3.40034ZM8.56489 19.0313L5.28738 29.6832L28.7088 17.9725L5.28738 6.26181L8.56489 16.9137H20.4884C21.0731 16.9137 21.5472 17.3878 21.5472 17.9725C21.5472 18.5573 21.0731 19.0313 20.4884 19.0313H8.56489Z" fill="#242424"/>
</svg>
