<svg width="30" height="30" viewBox="0 0 30 30" fill="none" xmlns="http://www.w3.org/2000/svg">
<path d="M6.58642 12.1874C6.58487 11.0756 6.8034 9.97439 7.22941 8.94737C7.65542 7.92036 8.28049 6.98781 9.06859 6.2035C9.85669 5.41919 10.7922 4.79861 11.8213 4.37755C12.8503 3.95648 13.9526 3.74326 15.0644 3.75016C19.7038 3.78465 23.4148 7.64094 23.4148 12.2933V13.1249C23.4148 17.3221 24.2929 19.7576 25.0663 21.0888C25.1496 21.231 25.1939 21.3927 25.1948 21.5575C25.1957 21.7224 25.1531 21.8845 25.0713 22.0277C24.9895 22.1708 24.8714 22.2898 24.729 22.3727C24.5865 22.4556 24.4247 22.4995 24.2599 22.4999H5.7404C5.57554 22.4995 5.41371 22.4556 5.27123 22.3727C5.12875 22.2897 5.01067 22.1707 4.92889 22.0275C4.84711 21.8844 4.80452 21.7222 4.80543 21.5574C4.80634 21.3925 4.85072 21.2308 4.93407 21.0886C5.7079 19.7574 6.58642 17.3219 6.58642 13.1249L6.58642 12.1874Z" stroke="#14171A" stroke-width="1.875" stroke-linecap="round" stroke-linejoin="round"/>
<path d="M11.25 22.5V23.4375C11.25 24.4321 11.6451 25.3859 12.3483 26.0892C13.0516 26.7924 14.0054 27.1875 15 27.1875C15.9946 27.1875 16.9484 26.7924 17.6517 26.0892C18.3549 25.3859 18.75 24.4321 18.75 23.4375V22.5" stroke="#14171A" stroke-width="1.875" stroke-linecap="round" stroke-linejoin="round"/>
<circle cx="21.25" cy="6.25" r="5" fill="#FF3636"/>
</svg>
