<svg width="24" height="25" viewBox="0 0 24 25" fill="none" xmlns="http://www.w3.org/2000/svg">
<g clip-path="url(#clip0_933_883)">
<path d="M17.0455 0.895508C21.0323 0.895508 23.4161 3.19951 23.4535 7.05391V18.6447C23.4535 22.5531 21.0635 24.8955 17.0455 24.8955H7.40923C6.8953 24.8955 6.40756 24.8571 5.94851 24.7815L5.67657 24.7323C2.71894 24.1407 1 21.9615 1 18.6447V7.14631C1 6.74551 1.02495 6.36151 1.07485 5.99431C1.51019 2.77231 3.81168 0.895508 7.40923 0.895508H17.0455ZM17.0343 2.64391H7.40923C4.34557 2.64391 2.79254 4.15951 2.79254 7.14631V18.6447C2.79254 21.6315 4.34557 23.1471 7.40923 23.1471H17.0343C20.0967 23.1471 21.6398 21.6315 21.6398 18.6447V7.14631C21.6398 4.15951 20.0967 2.64391 17.0343 2.64391ZM16.7087 17.1075C17.2002 17.1075 17.5981 17.4963 17.5981 17.9763C17.5981 18.4563 17.2002 18.8451 16.7087 18.8451H7.7136C7.22212 18.8451 6.82295 18.4563 6.82295 17.9763C6.82295 17.4963 7.22212 17.1075 7.7136 17.1075H16.7087ZM16.7087 12.0207C17.0518 11.9847 17.3873 12.1431 17.5707 12.4275C17.7541 12.7143 17.7541 13.0767 17.5707 13.3635C17.3873 13.6479 17.0518 13.8063 16.7087 13.7703H7.7136C7.25705 13.7199 6.91151 13.3443 6.91151 12.8955C6.91151 12.4467 7.25705 12.0699 7.7136 12.0207H16.7087ZM11.1465 6.94591C11.6031 6.99511 11.9486 7.37191 11.9486 7.82071C11.9486 8.26831 11.6031 8.64511 11.1465 8.69431H7.72483C7.26703 8.64511 6.92149 8.26831 6.92149 7.82071C6.92149 7.37191 7.26703 6.99511 7.72483 6.94591H11.1465Z" fill="#14171A"/>
</g>
<defs>
<clipPath id="clip0_933_883">
<rect width="24" height="24" fill="white" transform="translate(0 0.895508)"/>
</clipPath>
</defs>
</svg>
