<svg width="24" height="25" viewBox="0 0 24 25" fill="none" xmlns="http://www.w3.org/2000/svg">
<path d="M16.5 6.89551V18.3955C16.5 20.6055 14.71 22.3955 12.5 22.3955C10.29 22.3955 8.5 20.6055 8.5 18.3955V5.89551C8.5 4.51551 9.62 3.39551 11 3.39551C12.38 3.39551 13.5 4.51551 13.5 5.89551V16.3955C13.5 16.9455 13.05 17.3955 12.5 17.3955C11.95 17.3955 11.5 16.9455 11.5 16.3955V6.89551H10V16.3955C10 17.7755 11.12 18.8955 12.5 18.8955C13.88 18.8955 15 17.7755 15 16.3955V5.89551C15 3.68551 13.21 1.89551 11 1.89551C8.79 1.89551 7 3.68551 7 5.89551V18.3955C7 21.4355 9.46 23.8955 12.5 23.8955C15.54 23.8955 18 21.4355 18 18.3955V6.89551H16.5Z" fill="#14171A"/>
</svg>
