<svg width="16" height="16" viewBox="0 0 16 16" fill="none" xmlns="http://www.w3.org/2000/svg">
<path d="M3.1377 0.825195C1.75698 0.825195 0.637695 1.94448 0.637695 3.3252V10.3252C0.637695 11.7059 1.75698 12.8252 3.1377 12.8252H7.6877C7.7627 12.4558 7.91916 12.1159 8.13751 11.8252H3.1377C2.30927 11.8252 1.6377 11.1536 1.6377 10.3252V3.3252C1.6377 2.49677 2.30927 1.8252 3.1377 1.8252H10.1377C10.9661 1.8252 11.6377 2.49677 11.6377 3.3252V5.86667C11.8003 5.83939 11.9673 5.8252 12.1377 5.8252C12.3081 5.8252 12.4751 5.83939 12.6377 5.86667V3.3252C12.6377 1.94448 11.5184 0.825195 10.1377 0.825195H3.1377ZM9.49125 5.67875C9.68651 5.48349 9.68651 5.1669 9.49125 4.97164C9.29599 4.77638 8.9794 4.77638 8.78414 4.97164L5.6377 8.11809L4.49125 6.97164C4.29599 6.77638 3.9794 6.77638 3.78414 6.97164C3.58888 7.1669 3.58888 7.48349 3.78414 7.67875L5.28414 9.17875C5.4794 9.37401 5.79599 9.37401 5.99125 9.17875L9.49125 5.67875ZM14.1377 8.8252C14.1377 9.92976 13.2423 10.8252 12.1377 10.8252C11.0331 10.8252 10.1377 9.92976 10.1377 8.8252C10.1377 7.72063 11.0331 6.8252 12.1377 6.8252C13.2423 6.8252 14.1377 7.72063 14.1377 8.8252ZM15.6377 13.3252C15.6377 14.5704 14.6377 15.8252 12.1377 15.8252C9.6377 15.8252 8.6377 14.5751 8.6377 13.3252C8.6377 12.4968 9.30927 11.8252 10.1377 11.8252H14.1377C14.9661 11.8252 15.6377 12.4968 15.6377 13.3252Z" fill="white"/>
</svg>
