<svg width="25" height="24" viewBox="0 0 25 24" fill="#ffffff" xmlns="http://www.w3.org/2000/svg">
<path d="M10.8198 0.53478C11.7004 -0.178259 12.9598 -0.178261 13.8404 0.53478L22.9955 7.94769C23.8397 8.63118 24.3301 9.65924 24.3301 10.7454V21.6001C24.3301 22.9255 23.2556 24 21.9301 24H17.1301C15.8046 24 14.7301 22.9255 14.7301 21.6001V14.4004H9.93008V21.6001C9.93008 22.9255 8.85556 24 7.53008 24H2.73008C1.4046 24 0.330078 22.9255 0.330078 21.6001V10.7454C0.330078 9.65924 0.820479 8.63118 1.66461 7.94769L10.8198 0.53478ZM21.4852 9.8128L12.3301 2.3999L3.17492 9.81281C2.89355 10.0406 2.73008 10.3833 2.73008 10.7454V21.6001H7.53008V14.4004C7.53008 13.075 8.6046 12.0005 9.93008 12.0005H14.7301C16.0556 12.0005 17.1301 13.075 17.1301 14.4004V21.6001H21.9301V10.7454C21.9301 10.3833 21.7666 10.0406 21.4852 9.8128Z" fill="#ffffff"/>
</svg>
