<svg width="26" height="22" viewBox="0 0 26 22" fill="none" xmlns="http://www.w3.org/2000/svg">
<path d="M0.255371 2.35096C0.255371 1.09463 1.27345 0.0761719 2.52931 0.0761719H3.43888C4.69474 0.0761719 5.71282 1.09463 5.71282 2.35096V19.6394C5.71282 20.8957 4.69474 21.9141 3.43888 21.9141H2.52931C1.27345 21.9141 0.255371 20.8957 0.255371 19.6394V2.35096ZM2.52931 1.896C2.27814 1.896 2.07452 2.09969 2.07452 2.35096V19.6394C2.07452 19.8906 2.27814 20.0943 2.52931 20.0943H3.43888C3.69006 20.0943 3.89367 19.8906 3.89367 19.6394V2.35096C3.89367 2.09969 3.69006 1.896 3.43888 1.896H2.52931ZM7.53197 2.35096C7.53197 1.09463 8.55005 0.0761719 9.80591 0.0761719H10.7155C11.9713 0.0761719 12.9894 1.09463 12.9894 2.35096V19.6394C12.9894 20.8957 11.9713 21.9141 10.7155 21.9141H9.80591C8.55005 21.9141 7.53197 20.8957 7.53197 19.6394V2.35096ZM9.80591 1.896C9.55474 1.896 9.35112 2.09969 9.35112 2.35096V19.6394C9.35112 19.8906 9.55474 20.0943 9.80591 20.0943H10.7155C10.9667 20.0943 11.1703 19.8906 11.1703 19.6394V2.35096C11.1703 2.09969 10.9667 1.896 10.7155 1.896H9.80591ZM20.2324 5.13189C19.7788 4.004 18.5189 3.43225 17.3718 3.83378L16.3118 4.20483C15.0877 4.63329 14.4692 5.99743 14.9532 7.20099L20.3007 20.4981C20.7543 21.626 22.0143 22.1978 23.1614 21.7962L24.2214 21.4251C25.4454 20.9966 26.0639 19.6325 25.5799 18.429L20.2324 5.13189ZM17.9726 5.55149C18.202 5.47119 18.454 5.58554 18.5447 5.81112L23.8922 19.1082C23.989 19.3489 23.8653 19.6217 23.6205 19.7074L22.5605 20.0785C22.3311 20.1588 22.0791 20.0445 21.9884 19.8189L16.6409 6.52177C16.5441 6.28106 16.6678 6.00823 16.9126 5.92254L17.9726 5.55149Z" fill="#14171A"/>
</svg>
