<svg width="18" height="17" viewBox="0 0 18 17" fill="none" xmlns="http://www.w3.org/2000/svg">
<path d="M17.158 15.2146C17.5179 15.2146 17.8096 15.4911 17.8096 15.8322C17.8096 16.145 17.5644 16.4034 17.2464 16.4443L17.158 16.4499H10.3602C10.0004 16.4499 9.70864 16.1734 9.70864 15.8322C9.70864 15.5195 9.95377 15.2611 10.2718 15.2202L10.3602 15.2146H17.158ZM10.5465 1.06019C11.7801 -0.109257 13.7809 -0.109257 15.0145 1.06019L16.2952 2.27425C17.5287 3.4437 17.5287 5.3405 16.2952 6.50995L6.6693 15.6352C6.11888 16.157 5.37262 16.4498 4.5937 16.4498H0.651574C0.285363 16.4498 -0.00891985 16.1638 0.000206689 15.8168L0.099369 12.0459C0.119084 11.3332 0.426707 10.6537 0.958419 10.1496L10.5465 1.06019ZM9.8012 3.51206L1.87988 11.0232C1.58432 11.3034 1.41303 11.6817 1.40208 12.0775L1.31934 15.214L4.5937 15.2145C4.97898 15.2145 5.3495 15.0859 5.64195 14.8536L5.74784 14.7617L13.7084 7.21516L9.8012 3.51206ZM14.093 1.93373C13.3683 1.24673 12.1926 1.24673 11.4679 1.93373L10.7233 2.63844L14.6296 6.34153L15.3737 5.6364C16.0581 4.98757 16.0961 3.95732 15.4878 3.2661L15.3737 3.14779L14.093 1.93373Z" fill="#14171A"/>
</svg>
