<svg width="26" height="22" viewBox="0 0 26 22" fill="none" xmlns="http://www.w3.org/2000/svg">
<path d="M13.9959 1.02104C13.9959 0.46981 14.4427 0.0229492 14.994 0.0229492H24.9749C25.5261 0.0229492 25.973 0.46981 25.973 1.02104C25.973 1.57227 25.5261 2.01913 24.9749 2.01913H14.994C14.4427 2.01913 13.9959 1.57227 13.9959 1.02104ZM13.9959 5.01341C13.9959 4.46218 14.4427 4.01532 14.994 4.01532H24.9749C25.5261 4.01532 25.973 4.46218 25.973 5.01341C25.973 5.56464 25.5261 6.01151 24.9749 6.01151H14.994C14.4427 6.01151 13.9959 5.56464 13.9959 5.01341ZM13.9959 9.00578C13.9959 8.45455 14.4427 8.00769 14.994 8.00769H24.9749C25.5261 8.00769 25.973 8.45455 25.973 9.00578C25.973 9.55701 25.5261 10.0039 24.9749 10.0039H14.994C14.4427 10.0039 13.9959 9.55701 13.9959 9.00578ZM4.01495 2.01913H12.1701C12.3015 2.39104 12.5044 2.72923 12.7621 3.01723C12.5044 3.30522 12.3015 3.64341 12.1701 4.01532H4.01495C2.91249 4.01532 2.01877 4.90904 2.01877 6.01151V7.48821L11.9999 12.8627L13.9495 11.8129C14.2747 11.9339 14.6266 12.0001 14.994 12.0001H17.8123L12.4731 14.875C12.1777 15.0341 11.8221 15.0341 11.5267 14.875L2.01877 9.75539V17.9886C2.01877 19.0911 2.91249 19.9848 4.01495 19.9848H19.9844C21.0869 19.9848 21.9806 19.0911 21.9806 17.9886V12.0001H23.9768V17.9886C23.9768 20.1935 22.1894 21.981 19.9844 21.981H4.01495C1.81003 21.981 0.022583 20.1935 0.022583 17.9886V6.01151C0.022583 3.80658 1.81003 2.01913 4.01495 2.01913Z" fill="#14171A"/>
</svg>
