<svg width="13" height="13" viewBox="0 0 13 13" fill="none" xmlns="http://www.w3.org/2000/svg">
<path d="M0.637695 3.3252C0.637695 1.94448 1.75698 0.825195 3.1377 0.825195H10.1377C11.5184 0.825195 12.6377 1.94448 12.6377 3.3252V10.3252C12.6377 11.7059 11.5184 12.8252 10.1377 12.8252H3.1377C1.75698 12.8252 0.637695 11.7059 0.637695 10.3252V3.3252ZM3.1377 1.8252C2.30927 1.8252 1.6377 2.49677 1.6377 3.3252V10.3252C1.6377 11.1536 2.30927 11.8252 3.1377 11.8252H10.1377C10.9661 11.8252 11.6377 11.1536 11.6377 10.3252V3.3252C11.6377 2.49677 10.9661 1.8252 10.1377 1.8252H3.1377ZM6.6377 3.3252C6.91384 3.3252 7.1377 3.54905 7.1377 3.8252V6.3252H9.6377C9.91384 6.3252 10.1377 6.54905 10.1377 6.8252C10.1377 7.10134 9.91384 7.3252 9.6377 7.3252H7.1377V9.8252C7.1377 10.1013 6.91384 10.3252 6.6377 10.3252C6.36155 10.3252 6.1377 10.1013 6.1377 9.8252V7.32519H3.6377C3.36155 7.32519 3.1377 7.10134 3.1377 6.82519C3.1377 6.54905 3.36155 6.32519 3.6377 6.32519H6.1377V3.8252C6.1377 3.54905 6.36155 3.3252 6.6377 3.3252Z" fill="#4D8AFF"/>
</svg>
