<svg width="24" height="25" viewBox="0 0 24 25" fill="none" xmlns="http://www.w3.org/2000/svg">
<path d="M16.2284 2.89551C19.5528 2.89551 21.7684 5.32437 21.7684 8.80959V16.9804C21.7684 20.4658 19.5527 22.8955 16.2284 22.8955H7.76178C4.439 22.8955 2.23157 20.4678 2.23157 16.9804V8.80959C2.23157 5.3261 4.44544 2.89551 7.76178 2.89551H16.2284ZM16.2284 4.39934H7.76178C5.27995 4.39934 3.69976 6.13421 3.69976 8.80959V16.9804C3.69976 19.6602 5.27412 21.3917 7.76178 21.3917H16.2284C18.7186 21.3917 20.3002 19.6573 20.3002 16.9804V8.80959C20.3002 6.13295 18.7188 4.39934 16.2284 4.39934ZM16.9241 13.079L17.0514 13.2041L19.0834 15.3516C19.3656 15.6498 19.3583 16.1258 19.0672 16.4148C18.8025 16.6776 18.3943 16.6953 18.1103 16.4723L18.0291 16.3982L15.9972 14.2508C15.6432 13.8769 15.0678 13.8734 14.7085 14.2224L14.6296 14.3092L12.4482 17.0267C11.6766 17.9894 10.2883 18.0926 9.39009 17.2858L9.27075 17.1702L8.40018 16.2603C8.1715 16.0172 7.80682 15.9942 7.55286 16.1904L7.47265 16.2639L5.97607 17.881C5.69715 18.1824 5.23251 18.1951 4.93827 17.9094C4.67078 17.6497 4.63619 17.2328 4.84167 16.9327L4.91052 16.8464L6.40679 15.2296C7.1945 14.3774 8.49167 14.332 9.33077 15.0922L9.45308 15.2123L10.3193 16.1175C10.5725 16.3821 10.9783 16.3888 11.2399 16.1508L11.3138 16.0721L13.4954 13.3544C14.3621 12.2737 15.9229 12.1644 16.9241 13.079ZM8.65199 7.53674C10.0049 7.53674 11.1029 8.6614 11.1029 10.0471C11.1029 11.4329 10.0049 12.5575 8.65199 12.5575C7.29914 12.5575 6.20206 11.433 6.20206 10.0471C6.20206 8.66134 7.29914 7.53674 8.65199 7.53674ZM8.65199 9.04058C8.11026 9.04058 7.67026 9.49162 7.67026 10.0471C7.67026 10.6027 8.11026 11.0537 8.65199 11.0537C9.19404 11.0537 9.63471 10.6023 9.63471 10.0471C9.63471 9.49194 9.19404 9.04058 8.65199 9.04058Z" fill="#14171A"/>
</svg>
