<svg width="24" height="25" viewBox="0 0 24 25" fill="none" xmlns="http://www.w3.org/2000/svg">
<path d="M11.9999 8.26367C9.79074 8.26367 7.99988 10.0545 7.99988 12.2637C7.99988 14.4728 9.79074 16.2637 11.9999 16.2637C14.209 16.2637 15.9999 14.4728 15.9999 12.2637C15.9999 10.0545 14.209 8.26367 11.9999 8.26367ZM9.99988 12.2637C9.99988 11.1591 10.8953 10.2637 11.9999 10.2637C13.1044 10.2637 13.9999 11.1591 13.9999 12.2637C13.9999 13.3682 13.1044 14.2637 11.9999 14.2637C10.8953 14.2637 9.99988 13.3682 9.99988 12.2637ZM17.2361 5.06034C16.466 5.20018 15.7278 4.69193 15.5874 3.92515L15.0679 1.09359C15.0163 0.81221 14.7992 0.589693 14.5182 0.53018C13.6964 0.356101 12.8537 0.267578 12 0.267578C11.1458 0.267578 10.3026 0.356209 9.48026 0.530498C9.1992 0.590065 8.98209 0.812721 8.93058 1.09421L8.41258 3.92527C8.3988 4.00054 8.37884 4.0747 8.35294 4.14687C8.08952 4.88085 7.27839 5.26322 6.54125 5.00093L3.8223 4.03292C3.55206 3.93671 3.25022 4.01228 3.05783 4.22433C1.9201 5.47825 1.05783 6.95784 0.534404 8.56972C0.4461 8.84165 0.531246 9.13976 0.750048 9.32473L2.95389 11.1878C3.01253 11.2374 3.06705 11.2917 3.11687 11.3501C3.62354 11.9442 3.55056 12.8348 2.95386 13.3393L0.750048 15.2024C0.531246 15.3873 0.4461 15.6854 0.534404 15.9574C1.05783 17.5693 1.9201 19.0489 3.05783 20.3028C3.25022 20.5148 3.55206 20.5904 3.8223 20.4942L6.54137 19.5261C6.61373 19.5004 6.68821 19.4805 6.76393 19.4668C7.53403 19.3269 8.27217 19.8352 8.41261 20.602L8.93058 23.4329C8.98209 23.7144 9.1992 23.937 9.48026 23.9966C10.3026 24.1709 11.1458 24.2595 12 24.2595C12.8537 24.2595 13.6964 24.171 14.5182 23.9969C14.7992 23.9374 15.0163 23.7149 15.0679 23.4335L15.5874 20.6021C15.6012 20.5266 15.6212 20.4524 15.6471 20.3802C15.9105 19.6463 16.7216 19.2639 17.4588 19.5262L20.1777 20.4942C20.4479 20.5904 20.7498 20.5148 20.9422 20.3028C22.0799 19.0489 22.9422 17.5693 23.4656 15.9574C23.5539 15.6854 23.4688 15.3873 23.25 15.2024L21.0461 13.3393C20.9875 13.2897 20.933 13.2354 20.8831 13.177C20.3765 12.5829 20.4494 11.6923 21.0461 11.1878L23.25 9.32473C23.4688 9.13976 23.5539 8.84165 23.4656 8.56972C22.9422 6.95784 22.0799 5.47825 20.9422 4.22433C20.7498 4.01228 20.4479 3.93671 20.1777 4.03292L17.4586 5.00097C17.3863 5.02672 17.3118 5.04659 17.2361 5.06034ZM3.99726 6.21818L5.87045 6.88508C7.64034 7.51485 9.59743 6.59997 10.2354 4.82248C10.2981 4.64781 10.3465 4.46786 10.3799 4.28523L10.7348 2.34593C11.1514 2.29392 11.5737 2.26758 12 2.26758C12.426 2.26758 12.8479 2.29388 13.2643 2.34581L13.6202 4.28602C13.9611 6.14527 15.7453 7.36374 17.5934 7.02816C17.7755 6.9951 17.955 6.94719 18.1294 6.88512L20.0027 6.21818C20.5129 6.88535 20.9368 7.61319 21.2637 8.38494L19.7549 9.66048C18.3131 10.8794 18.1349 13.0366 19.3613 14.4748C19.4817 14.6159 19.6134 14.747 19.7549 14.8667L21.2637 16.1422C20.9368 16.9139 20.5129 17.6417 20.0027 18.3089L18.1292 17.6419C16.3593 17.0121 14.4026 17.9271 13.7646 19.7046C13.7019 19.8793 13.6535 20.0593 13.6201 20.2418L13.2643 22.1813C12.8479 22.2332 12.426 22.2595 12 22.2595C11.5737 22.2595 11.1514 22.2332 10.7348 22.1812L10.3799 20.2416C10.0393 18.3821 8.25487 17.1633 6.40661 17.4989C6.22454 17.532 6.045 17.5799 5.87057 17.642L3.99726 18.3089C3.48713 17.6417 3.06322 16.9139 2.73628 16.1422L4.24513 14.8666C5.68686 13.6477 5.86507 11.4905 4.63865 10.0523C4.51834 9.91123 4.38663 9.78011 4.24507 9.66043L2.73628 8.38494C3.06322 7.61319 3.48713 6.88535 3.99726 6.21818Z" fill="#14171A"/>
</svg>
