<svg width="104" height="29" viewBox="0 0 104 29" fill="none" xmlns="http://www.w3.org/2000/svg">
<path d="M8.09233 28L0.703125 1.81818H5.80398L10.5213 21.0582H10.7642L15.8011 1.81818H20.4418L25.4915 21.071H25.7216L30.4389 1.81818H35.5398L28.1506 28H23.4716L18.2301 9.62926H18.0256L12.7713 28H8.09233ZM37.9039 28V8.36364H42.5318V28H37.9039ZM40.2306 5.5767C39.4977 5.5767 38.867 5.33381 38.3386 4.84801C37.8102 4.35369 37.546 3.76136 37.546 3.07102C37.546 2.37216 37.8102 1.77983 38.3386 1.29403C38.867 0.799715 39.4977 0.552556 40.2306 0.552556C40.9721 0.552556 41.6028 0.799715 42.1227 1.29403C42.6511 1.77983 42.9153 2.37216 42.9153 3.07102C42.9153 3.76136 42.6511 4.35369 42.1227 4.84801C41.6028 5.33381 40.9721 5.5767 40.2306 5.5767ZM62.0905 13.554L57.8718 14.0142C57.7525 13.5881 57.5437 13.1875 57.2454 12.8125C56.9556 12.4375 56.5636 12.1349 56.0692 11.9048C55.5749 11.6747 54.9698 11.5597 54.2539 11.5597C53.2908 11.5597 52.4812 11.7685 51.8249 12.1861C51.1772 12.6037 50.8576 13.1449 50.8661 13.8097C50.8576 14.3807 51.0664 14.8452 51.4925 15.2031C51.9272 15.5611 52.6431 15.8551 53.6403 16.0852L56.9897 16.8011C58.8476 17.2017 60.2283 17.8366 61.1317 18.706C62.0437 19.5753 62.5039 20.7131 62.5124 22.1193C62.5039 23.3551 62.1417 24.446 61.4258 25.392C60.7184 26.3295 59.734 27.0625 58.4726 27.5909C57.2113 28.1193 55.7624 28.3835 54.1261 28.3835C51.7226 28.3835 49.788 27.8807 48.3221 26.875C46.8562 25.8608 45.9826 24.4503 45.7013 22.6435L50.2141 22.2088C50.4187 23.0952 50.8533 23.7642 51.5181 24.2159C52.1829 24.6676 53.0479 24.8935 54.1133 24.8935C55.2127 24.8935 56.0948 24.6676 56.7596 24.2159C57.4329 23.7642 57.7695 23.206 57.7695 22.5412C57.7695 21.9787 57.5522 21.5142 57.1175 21.1477C56.6914 20.7812 56.0266 20.5 55.1232 20.304L51.7738 19.6009C49.8903 19.2088 48.4968 18.5483 47.5934 17.6193C46.69 16.6818 46.2425 15.4972 46.2511 14.0653C46.2425 12.8551 46.5707 11.8068 47.2354 10.9205C47.9087 10.0256 48.842 9.33523 50.0351 8.84943C51.2368 8.35511 52.6218 8.10795 54.19 8.10795C56.4911 8.10795 58.3022 8.59801 59.6232 9.57812C60.9528 10.5582 61.7752 11.8835 62.0905 13.554ZM74.3016 28.3835C72.3329 28.3835 70.6326 27.9744 69.2008 27.1562C67.7775 26.3295 66.6823 25.1619 65.9153 23.6534C65.1482 22.1364 64.7647 20.3509 64.7647 18.2969C64.7647 16.277 65.1482 14.5043 65.9153 12.9787C66.6909 11.4446 67.7732 10.2514 69.1624 9.39915C70.5516 8.53835 72.1838 8.10795 74.0588 8.10795C75.269 8.10795 76.411 8.30398 77.4849 8.69602C78.5673 9.07954 79.5218 9.67614 80.3485 10.4858C81.1838 11.2955 81.84 12.3267 82.3173 13.5795C82.7945 14.8239 83.0332 16.3068 83.0332 18.0284V19.4474H66.938V16.3281H78.5971C78.5886 15.4418 78.3968 14.6534 78.0218 13.9631C77.6468 13.2642 77.1227 12.7145 76.4494 12.3139C75.7846 11.9134 75.009 11.7131 74.1227 11.7131C73.1766 11.7131 72.3457 11.9432 71.6298 12.4034C70.9139 12.8551 70.3556 13.4517 69.9551 14.1932C69.563 14.9261 69.3627 15.7315 69.3542 16.6094V19.3324C69.3542 20.4744 69.563 21.4545 69.9806 22.2727C70.3982 23.0824 70.982 23.7045 71.732 24.1392C72.482 24.5653 73.3599 24.7784 74.3656 24.7784C75.0389 24.7784 75.6482 24.6847 76.1937 24.4972C76.7391 24.3011 77.2122 24.0156 77.6127 23.6406C78.0133 23.2656 78.3159 22.8011 78.5204 22.2472L82.8414 22.733C82.5687 23.875 82.0488 24.8722 81.2818 25.7244C80.5232 26.5682 79.5516 27.2244 78.367 27.6932C77.1823 28.1534 75.8272 28.3835 74.3016 28.3835ZM93.5152 28.3452C91.9726 28.3452 90.5919 27.9489 89.3732 27.1562C88.1544 26.3636 87.1914 25.2131 86.484 23.7045C85.7766 22.196 85.4229 20.3636 85.4229 18.2074C85.4229 16.0256 85.7809 14.1847 86.4968 12.6847C87.2212 11.1761 88.1971 10.0384 89.4243 9.27131C90.6516 8.49574 92.0195 8.10795 93.528 8.10795C94.6786 8.10795 95.6246 8.30398 96.3661 8.69602C97.1076 9.07954 97.6956 9.54403 98.1303 10.0895C98.565 10.6264 98.9016 11.1335 99.1402 11.6108H99.332V1.81818H103.973V28H99.4215V24.9062H99.1402C98.9016 25.3835 98.5564 25.8906 98.1047 26.4276C97.653 26.956 97.0564 27.4077 96.315 27.7827C95.5735 28.1577 94.6402 28.3452 93.5152 28.3452ZM94.8064 24.5483C95.7866 24.5483 96.6218 24.2841 97.3121 23.7557C98.0025 23.2187 98.5266 22.473 98.8846 21.5185C99.2425 20.5639 99.4215 19.4517 99.4215 18.1818C99.4215 16.9119 99.2425 15.8082 98.8846 14.8707C98.5351 13.9332 98.0152 13.2045 97.3249 12.6847C96.6431 12.1648 95.8036 11.9048 94.8064 11.9048C93.7752 11.9048 92.9144 12.1733 92.2241 12.7102C91.5337 13.2472 91.0138 13.9886 90.6644 14.9347C90.315 15.8807 90.1402 16.9631 90.1402 18.1818C90.1402 19.4091 90.315 20.5043 90.6644 21.4673C91.0223 22.4219 91.5465 23.1761 92.2368 23.7301C92.9357 24.2756 93.7922 24.5483 94.8064 24.5483Z" fill="#14171A"/>
</svg>
